STARTFONT 2.1
FONT -FontForge-DSEG7 Classic-Book-R-Normal--60-580-75-75-P-458-ISO10646-1
SIZE 58 75 75
FONTBOUNDINGBOX 47 60 -4 0
COMMENT "Generated by fontforge, http://fontforge.sourceforge.net"
COMMENT "Created by Keshikan"
COMMENT "with FontForge 2.0 (http://fontforge.sf.net)"
STARTPROPERTIES 40
FOUNDRY "FontForge"
FAMILY_NAME "DSEG7 Classic"
WEIGHT_NAME "Book"
SLANT "R"
SETWIDTH_NAME "Normal"
ADD_STYLE_NAME ""
PIXEL_SIZE 60
POINT_SIZE 580
RESOLUTION_X 75
RESOLUTION_Y 75
SPACING "P"
AVERAGE_WIDTH 458
CHARSET_REGISTRY "ISO10646"
CHARSET_ENCODING "1"
FONTNAME_REGISTRY ""
CHARSET_COLLECTIONS "ISO10646-1"
FONT_NAME "DSEG7Classic-Regular"
FACE_NAME "DSEG7 Classic-Regular"
COPYRIGHT "Created by Keshikan"
FONT_VERSION "0.46"
FONT_ASCENT 60
FONT_DESCENT 0
UNDERLINE_POSITION -9
UNDERLINE_THICKNESS 3
X_HEIGHT 56
CAP_HEIGHT 56
RAW_ASCENT 1000
RAW_DESCENT 0
NORM_SPACE 12
RELATIVE_WEIGHT 40
RELATIVE_SETWIDTH 50
SUPERSCRIPT_X 0
SUPERSCRIPT_Y 28
SUPERSCRIPT_SIZE 42
SUBSCRIPT_X 0
SUBSCRIPT_Y 8
SUBSCRIPT_SIZE 42
FIGURE_WIDTH 49
AVG_LOWERCASE_WIDTH 490
AVG_UPPERCASE_WIDTH 490
ENDPROPERTIES
CHARS 72
STARTCHAR space
ENCODING 32
SWIDTH 200 0
DWIDTH 12 0
BBX 1 1 0 0
BITMAP
00
ENDCHAR
STARTCHAR exclam
ENCODING 33
SWIDTH 816 0
DWIDTH 49 0
BBX 1 1 0 0
BITMAP
00
ENDCHAR
STARTCHAR hyphen
ENCODING 45
SWIDTH 816 0
DWIDTH 49 0
BBX 31 6 9 27
BITMAP
3FFFFFF8
7FFFFFFC
FFFFFFFE
FFFFFFFE
7FFFFFFC
3FFFFFF8
ENDCHAR
STARTCHAR period
ENCODING 46
SWIDTH 0 0
DWIDTH 0 0
BBX 8 7 -4 0
BITMAP
3C
7E
FF
FF
FF
7E
3C
ENDCHAR
STARTCHAR zero
ENCODING 48
SWIDTH 816 0
DWIDTH 49 0
BBX 37 60 6 0
BITMAP
0FFFFFFF80
1FFFFFFFC0
1FFFFFFFC0
6FFFFFFFB0
F7FFFFFF78
FBFFFFFEF8
FC000001F8
FC000001F8
FC000001F8
FC000001F8
FC000001F8
FC000001F8
FC000001F8
FC000001F8
FC000001F8
FC000001F8
FC000001F8
FC000001F8
FC000001F8
FC000001F8
FC000001F8
FC000001F8
FC000001F8
FC000001F8
FC000001F8
F8000001F8
F0000000F8
E000000078
C000000038
0000000000
0000000000
C000000038
E000000078
F0000000F8
F8000001F8
FC000001F8
FC000001F8
FC000001F8
FC000001F8
FC000001F8
FC000001F8
FC000001F8
FC000001F8
FC000001F8
FC000001F8
FC000001F8
FC000001F8
FC000001F8
FC000001F8
FC000001F8
FC000001F8
FC000001F8
FC000001F8
FC000001F8
FBFFFFFEF8
F7FFFFFF78
6FFFFFFFB0
1FFFFFFFC0
1FFFFFFFC0
0FFFFFFF80
ENDCHAR
STARTCHAR one
ENCODING 49
SWIDTH 816 0
DWIDTH 49 0
BBX 6 54 37 3
BITMAP
18
3C
7C
FC
FC
FC
FC
FC
FC
FC
FC
FC
FC
FC
FC
FC
FC
FC
FC
FC
FC
FC
FC
7C
3C
1C
00
00
1C
3C
7C
FC
FC
FC
FC
FC
FC
FC
FC
FC
FC
FC
FC
FC
FC
FC
FC
FC
FC
FC
FC
7C
3C
18
ENDCHAR
STARTCHAR two
ENCODING 50
SWIDTH 816 0
DWIDTH 49 0
BBX 37 60 6 0
BITMAP
0FFFFFFF80
1FFFFFFFC0
1FFFFFFFC0
0FFFFFFFB0
07FFFFFF78
03FFFFFEF8
00000001F8
00000001F8
00000001F8
00000001F8
00000001F8
00000001F8
00000001F8
00000001F8
00000001F8
00000001F8
00000001F8
00000001F8
00000001F8
00000001F8
00000001F8
00000001F8
00000001F8
00000001F8
00000001F8
00000001F8
00000000F8
07FFFFFF78
0FFFFFFFB8
1FFFFFFFC0
1FFFFFFFC0
CFFFFFFF80
E7FFFFFF00
F000000000
F800000000
FC00000000
FC00000000
FC00000000
FC00000000
FC00000000
FC00000000
FC00000000
FC00000000
FC00000000
FC00000000
FC00000000
FC00000000
FC00000000
FC00000000
FC00000000
FC00000000
FC00000000
FC00000000
FC00000000
FBFFFFFE00
F7FFFFFF00
6FFFFFFF80
1FFFFFFFC0
1FFFFFFFC0
0FFFFFFF80
ENDCHAR
STARTCHAR three
ENCODING 51
SWIDTH 816 0
DWIDTH 49 0
BBX 34 60 9 0
BITMAP
7FFFFFFC00
FFFFFFFE00
FFFFFFFE00
7FFFFFFD80
3FFFFFFBC0
1FFFFFF7C0
0000000FC0
0000000FC0
0000000FC0
0000000FC0
0000000FC0
0000000FC0
0000000FC0
0000000FC0
0000000FC0
0000000FC0
0000000FC0
0000000FC0
0000000FC0
0000000FC0
0000000FC0
0000000FC0
0000000FC0
0000000FC0
0000000FC0
0000000FC0
00000007C0
3FFFFFFBC0
7FFFFFFDC0
FFFFFFFE00
FFFFFFFE00
7FFFFFFDC0
3FFFFFFBC0
00000007C0
0000000FC0
0000000FC0
0000000FC0
0000000FC0
0000000FC0
0000000FC0
0000000FC0
0000000FC0
0000000FC0
0000000FC0
0000000FC0
0000000FC0
0000000FC0
0000000FC0
0000000FC0
0000000FC0
0000000FC0
0000000FC0
0000000FC0
0000000FC0
1FFFFFF7C0
3FFFFFFBC0
7FFFFFFD80
FFFFFFFE00
FFFFFFFE00
7FFFFFFC00
ENDCHAR
STARTCHAR four
ENCODING 52
SWIDTH 816 0
DWIDTH 49 0
BBX 37 54 6 3
BITMAP
6000000030
F000000078
F8000000F8
FC000001F8
FC000001F8
FC000001F8
FC000001F8
FC000001F8
FC000001F8
FC000001F8
FC000001F8
FC000001F8
FC000001F8
FC000001F8
FC000001F8
FC000001F8
FC000001F8
FC000001F8
FC000001F8
FC000001F8
FC000001F8
FC000001F8
F8000001F8
F0000000F8
E7FFFFFF78
CFFFFFFFB8
1FFFFFFFC0
1FFFFFFFC0
0FFFFFFFB8
07FFFFFF78
00000000F8
00000001F8
00000001F8
00000001F8
00000001F8
00000001F8
00000001F8
00000001F8
00000001F8
00000001F8
00000001F8
00000001F8
00000001F8
00000001F8
00000001F8
00000001F8
00000001F8
00000001F8
00000001F8
00000001F8
00000001F8
00000000F8
0000000078
0000000030
ENDCHAR
STARTCHAR five
ENCODING 53
SWIDTH 816 0
DWIDTH 49 0
BBX 37 60 6 0
BITMAP
0FFFFFFF80
1FFFFFFFC0
1FFFFFFFC0
6FFFFFFF80
F7FFFFFF00
FBFFFFFE00
FC00000000
FC00000000
FC00000000
FC00000000
FC00000000
FC00000000
FC00000000
FC00000000
FC00000000
FC00000000
FC00000000
FC00000000
FC00000000
FC00000000
FC00000000
FC00000000
FC00000000
FC00000000
FC00000000
F800000000
F000000000
E7FFFFFF00
CFFFFFFF80
1FFFFFFFC0
1FFFFFFFC0
0FFFFFFFB8
07FFFFFF78
00000000F8
00000001F8
00000001F8
00000001F8
00000001F8
00000001F8
00000001F8
00000001F8
00000001F8
00000001F8
00000001F8
00000001F8
00000001F8
00000001F8
00000001F8
00000001F8
00000001F8
00000001F8
00000001F8
00000001F8
00000001F8
03FFFFFEF8
07FFFFFF78
0FFFFFFFB0
1FFFFFFFC0
1FFFFFFFC0
0FFFFFFF80
ENDCHAR
STARTCHAR six
ENCODING 54
SWIDTH 816 0
DWIDTH 49 0
BBX 37 60 6 0
BITMAP
0FFFFFFF80
1FFFFFFFC0
1FFFFFFFC0
6FFFFFFF80
F7FFFFFF00
FBFFFFFE00
FC00000000
FC00000000
FC00000000
FC00000000
FC00000000
FC00000000
FC00000000
FC00000000
FC00000000
FC00000000
FC00000000
FC00000000
FC00000000
FC00000000
FC00000000
FC00000000
FC00000000
FC00000000
FC00000000
F800000000
F000000000
E7FFFFFF00
CFFFFFFF80
1FFFFFFFC0
1FFFFFFFC0
CFFFFFFFB8
E7FFFFFF78
F0000000F8
F8000001F8
FC000001F8
FC000001F8
FC000001F8
FC000001F8
FC000001F8
FC000001F8
FC000001F8
FC000001F8
FC000001F8
FC000001F8
FC000001F8
FC000001F8
FC000001F8
FC000001F8
FC000001F8
FC000001F8
FC000001F8
FC000001F8
FC000001F8
FBFFFFFEF8
F7FFFFFF78
6FFFFFFFB0
1FFFFFFFC0
1FFFFFFFC0
0FFFFFFF80
ENDCHAR
STARTCHAR seven
ENCODING 55
SWIDTH 816 0
DWIDTH 49 0
BBX 37 57 6 3
BITMAP
0FFFFFFF80
1FFFFFFFC0
1FFFFFFFC0
6FFFFFFFB0
F7FFFFFF78
FBFFFFFEF8
FC000001F8
FC000001F8
FC000001F8
FC000001F8
FC000001F8
FC000001F8
FC000001F8
FC000001F8
FC000001F8
FC000001F8
FC000001F8
FC000001F8
FC000001F8
FC000001F8
FC000001F8
FC000001F8
FC000001F8
FC000001F8
FC000001F8
F8000001F8
F0000000F8
E000000078
C000000038
0000000000
0000000000
0000000038
0000000078
00000000F8
00000001F8
00000001F8
00000001F8
00000001F8
00000001F8
00000001F8
00000001F8
00000001F8
00000001F8
00000001F8
00000001F8
00000001F8
00000001F8
00000001F8
00000001F8
00000001F8
00000001F8
00000001F8
00000001F8
00000001F8
00000000F8
0000000078
0000000030
ENDCHAR
STARTCHAR eight
ENCODING 56
SWIDTH 816 0
DWIDTH 49 0
BBX 37 60 6 0
BITMAP
0FFFFFFF80
1FFFFFFFC0
1FFFFFFFC0
6FFFFFFFB0
F7FFFFFF78
FBFFFFFEF8
FC000001F8
FC000001F8
FC000001F8
FC000001F8
FC000001F8
FC000001F8
FC000001F8
FC000001F8
FC000001F8
FC000001F8
FC000001F8
FC000001F8
FC000001F8
FC000001F8
FC000001F8
FC000001F8
FC000001F8
FC000001F8
FC000001F8
F8000001F8
F0000000F8
E7FFFFFF78
CFFFFFFFB8
1FFFFFFFC0
1FFFFFFFC0
CFFFFFFFB8
E7FFFFFF78
F0000000F8
F8000001F8
FC000001F8
FC000001F8
FC000001F8
FC000001F8
FC000001F8
FC000001F8
FC000001F8
FC000001F8
FC000001F8
FC000001F8
FC000001F8
FC000001F8
FC000001F8
FC000001F8
FC000001F8
FC000001F8
FC000001F8
FC000001F8
FC000001F8
FBFFFFFEF8
F7FFFFFF78
6FFFFFFFB0
1FFFFFFFC0
1FFFFFFFC0
0FFFFFFF80
ENDCHAR
STARTCHAR nine
ENCODING 57
SWIDTH 816 0
DWIDTH 49 0
BBX 37 60 6 0
BITMAP
0FFFFFFF80
1FFFFFFFC0
1FFFFFFFC0
6FFFFFFFB0
F7FFFFFF78
FBFFFFFEF8
FC000001F8
FC000001F8
FC000001F8
FC000001F8
FC000001F8
FC000001F8
FC000001F8
FC000001F8
FC000001F8
FC000001F8
FC000001F8
FC000001F8
FC000001F8
FC000001F8
FC000001F8
FC000001F8
FC000001F8
FC000001F8
FC000001F8
F8000001F8
F0000000F8
E7FFFFFF78
CFFFFFFFB8
1FFFFFFFC0
1FFFFFFFC0
0FFFFFFFB8
07FFFFFF78
00000000F8
00000001F8
00000001F8
00000001F8
00000001F8
00000001F8
00000001F8
00000001F8
00000001F8
00000001F8
00000001F8
00000001F8
00000001F8
00000001F8
00000001F8
00000001F8
00000001F8
00000001F8
00000001F8
00000001F8
00000001F8
03FFFFFEF8
07FFFFFF78
0FFFFFFFB0
1FFFFFFFC0
1FFFFFFFC0
0FFFFFFF80
ENDCHAR
STARTCHAR colon
ENCODING 58
SWIDTH 200 0
DWIDTH 12 0
BBX 8 32 2 13
BITMAP
3C
7E
FF
FF
FF
7E
3C
00
00
00
00
00
00
00
00
00
00
00
00
00
00
00
00
00
00
7E
7E
FF
FF
7E
7E
3C
ENDCHAR
STARTCHAR A
ENCODING 65
SWIDTH 816 0
DWIDTH 49 0
BBX 37 57 6 3
BITMAP
0FFFFFFF80
1FFFFFFFC0
1FFFFFFFC0
6FFFFFFFB0
F7FFFFFF78
FBFFFFFEF8
FC000001F8
FC000001F8
FC000001F8
FC000001F8
FC000001F8
FC000001F8
FC000001F8
FC000001F8
FC000001F8
FC000001F8
FC000001F8
FC000001F8
FC000001F8
FC000001F8
FC000001F8
FC000001F8
FC000001F8
FC000001F8
FC000001F8
F8000001F8
F0000000F8
E7FFFFFF78
CFFFFFFFB8
1FFFFFFFC0
1FFFFFFFC0
CFFFFFFFB8
E7FFFFFF78
F0000000F8
F8000001F8
FC000001F8
FC000001F8
FC000001F8
FC000001F8
FC000001F8
FC000001F8
FC000001F8
FC000001F8
FC000001F8
FC000001F8
FC000001F8
FC000001F8
FC000001F8
FC000001F8
FC000001F8
FC000001F8
FC000001F8
FC000001F8
FC000001F8
F8000000F8
F000000078
6000000030
ENDCHAR
STARTCHAR B
ENCODING 66
SWIDTH 816 0
DWIDTH 49 0
BBX 37 57 6 0
BITMAP
6000000000
F000000000
F800000000
FC00000000
FC00000000
FC00000000
FC00000000
FC00000000
FC00000000
FC00000000
FC00000000
FC00000000
FC00000000
FC00000000
FC00000000
FC00000000
FC00000000
FC00000000
FC00000000
FC00000000
FC00000000
FC00000000
F800000000
F000000000
E7FFFFFF00
CFFFFFFF80
1FFFFFFFC0
1FFFFFFFC0
CFFFFFFFB8
E7FFFFFF78
F0000000F8
F8000001F8
FC000001F8
FC000001F8
FC000001F8
FC000001F8
FC000001F8
FC000001F8
FC000001F8
FC000001F8
FC000001F8
FC000001F8
FC000001F8
FC000001F8
FC000001F8
FC000001F8
FC000001F8
FC000001F8
FC000001F8
FC000001F8
FC000001F8
FBFFFFFEF8
F7FFFFFF78
6FFFFFFFB0
1FFFFFFFC0
1FFFFFFFC0
0FFFFFFF80
ENDCHAR
STARTCHAR C
ENCODING 67
SWIDTH 816 0
DWIDTH 49 0
BBX 34 33 6 0
BITMAP
07FFFFFF00
0FFFFFFF80
1FFFFFFFC0
1FFFFFFFC0
CFFFFFFF80
E7FFFFFF00
F000000000
F800000000
FC00000000
FC00000000
FC00000000
FC00000000
FC00000000
FC00000000
FC00000000
FC00000000
FC00000000
FC00000000
FC00000000
FC00000000
FC00000000
FC00000000
FC00000000
FC00000000
FC00000000
FC00000000
FC00000000
FBFFFFFE00
F7FFFFFF00
6FFFFFFF80
1FFFFFFFC0
1FFFFFFFC0
0FFFFFFF80
ENDCHAR
STARTCHAR D
ENCODING 68
SWIDTH 816 0
DWIDTH 49 0
BBX 37 57 6 0
BITMAP
0000000030
0000000078
00000000F8
00000001F8
00000001F8
00000001F8
00000001F8
00000001F8
00000001F8
00000001F8
00000001F8
00000001F8
00000001F8
00000001F8
00000001F8
00000001F8
00000001F8
00000001F8
00000001F8
00000001F8
00000001F8
00000001F8
00000001F8
00000000F8
07FFFFFF78
0FFFFFFFB8
1FFFFFFFC0
1FFFFFFFC0
CFFFFFFFB8
E7FFFFFF78
F0000000F8
F8000001F8
FC000001F8
FC000001F8
FC000001F8
FC000001F8
FC000001F8
FC000001F8
FC000001F8
FC000001F8
FC000001F8
FC000001F8
FC000001F8
FC000001F8
FC000001F8
FC000001F8
FC000001F8
FC000001F8
FC000001F8
FC000001F8
FC000001F8
FBFFFFFEF8
F7FFFFFF78
6FFFFFFFB0
1FFFFFFFC0
1FFFFFFFC0
0FFFFFFF80
ENDCHAR
STARTCHAR E
ENCODING 69
SWIDTH 816 0
DWIDTH 49 0
BBX 34 60 6 0
BITMAP
0FFFFFFF80
1FFFFFFFC0
1FFFFFFFC0
6FFFFFFF80
F7FFFFFF00
FBFFFFFE00
FC00000000
FC00000000
FC00000000
FC00000000
FC00000000
FC00000000
FC00000000
FC00000000
FC00000000
FC00000000
FC00000000
FC00000000
FC00000000
FC00000000
FC00000000
FC00000000
FC00000000
FC00000000
FC00000000
F800000000
F000000000
E7FFFFFF00
CFFFFFFF80
1FFFFFFFC0
1FFFFFFFC0
CFFFFFFF80
E7FFFFFF00
F000000000
F800000000
FC00000000
FC00000000
FC00000000
FC00000000
FC00000000
FC00000000
FC00000000
FC00000000
FC00000000
FC00000000
FC00000000
FC00000000
FC00000000
FC00000000
FC00000000
FC00000000
FC00000000
FC00000000
FC00000000
FBFFFFFE00
F7FFFFFF00
6FFFFFFF80
1FFFFFFFC0
1FFFFFFFC0
0FFFFFFF80
ENDCHAR
STARTCHAR F
ENCODING 70
SWIDTH 816 0
DWIDTH 49 0
BBX 34 57 6 3
BITMAP
0FFFFFFF80
1FFFFFFFC0
1FFFFFFFC0
6FFFFFFF80
F7FFFFFF00
FBFFFFFE00
FC00000000
FC00000000
FC00000000
FC00000000
FC00000000
FC00000000
FC00000000
FC00000000
FC00000000
FC00000000
FC00000000
FC00000000
FC00000000
FC00000000
FC00000000
FC00000000
FC00000000
FC00000000
FC00000000
F800000000
F000000000
E7FFFFFF00
CFFFFFFF80
1FFFFFFFC0
1FFFFFFFC0
CFFFFFFF80
E7FFFFFF00
F000000000
F800000000
FC00000000
FC00000000
FC00000000
FC00000000
FC00000000
FC00000000
FC00000000
FC00000000
FC00000000
FC00000000
FC00000000
FC00000000
FC00000000
FC00000000
FC00000000
FC00000000
FC00000000
FC00000000
FC00000000
F800000000
F000000000
6000000000
ENDCHAR
STARTCHAR G
ENCODING 71
SWIDTH 816 0
DWIDTH 49 0
BBX 37 60 6 0
BITMAP
0FFFFFFF80
1FFFFFFFC0
1FFFFFFFC0
6FFFFFFF80
F7FFFFFF00
FBFFFFFE00
FC00000000
FC00000000
FC00000000
FC00000000
FC00000000
FC00000000
FC00000000
FC00000000
FC00000000
FC00000000
FC00000000
FC00000000
FC00000000
FC00000000
FC00000000
FC00000000
FC00000000
FC00000000
FC00000000
F800000000
F000000000
E000000000
C000000000
0000000000
0000000000
C000000038
E000000078
F0000000F8
F8000001F8
FC000001F8
FC000001F8
FC000001F8
FC000001F8
FC000001F8
FC000001F8
FC000001F8
FC000001F8
FC000001F8
FC000001F8
FC000001F8
FC000001F8
FC000001F8
FC000001F8
FC000001F8
FC000001F8
FC000001F8
FC000001F8
FC000001F8
FBFFFFFEF8
F7FFFFFF78
6FFFFFFFB0
1FFFFFFFC0
1FFFFFFFC0
0FFFFFFF80
ENDCHAR
STARTCHAR H
ENCODING 72
SWIDTH 816 0
DWIDTH 49 0
BBX 37 54 6 3
BITMAP
6000000000
F000000000
F800000000
FC00000000
FC00000000
FC00000000
FC00000000
FC00000000
FC00000000
FC00000000
FC00000000
FC00000000
FC00000000
FC00000000
FC00000000
FC00000000
FC00000000
FC00000000
FC00000000
FC00000000
FC00000000
FC00000000
F800000000
F000000000
E7FFFFFF00
CFFFFFFF80
1FFFFFFFC0
1FFFFFFFC0
CFFFFFFFB8
E7FFFFFF78
F0000000F8
F8000001F8
FC000001F8
FC000001F8
FC000001F8
FC000001F8
FC000001F8
FC000001F8
FC000001F8
FC000001F8
FC000001F8
FC000001F8
FC000001F8
FC000001F8
FC000001F8
FC000001F8
FC000001F8
FC000001F8
FC000001F8
FC000001F8
FC000001F8
F8000000F8
F000000078
6000000030
ENDCHAR
STARTCHAR I
ENCODING 73
SWIDTH 816 0
DWIDTH 49 0
BBX 6 26 37 3
BITMAP
1C
3C
7C
FC
FC
FC
FC
FC
FC
FC
FC
FC
FC
FC
FC
FC
FC
FC
FC
FC
FC
FC
FC
7C
3C
18
ENDCHAR
STARTCHAR J
ENCODING 74
SWIDTH 816 0
DWIDTH 49 0
BBX 37 57 6 0
BITMAP
0000000030
0000000078
00000000F8
00000001F8
00000001F8
00000001F8
00000001F8
00000001F8
00000001F8
00000001F8
00000001F8
00000001F8
00000001F8
00000001F8
00000001F8
00000001F8
00000001F8
00000001F8
00000001F8
00000001F8
00000001F8
00000001F8
00000001F8
00000000F8
0000000078
0000000038
0000000000
0000000000
C000000038
E000000078
F0000000F8
F8000001F8
FC000001F8
FC000001F8
FC000001F8
FC000001F8
FC000001F8
FC000001F8
FC000001F8
FC000001F8
FC000001F8
FC000001F8
FC000001F8
FC000001F8
FC000001F8
FC000001F8
FC000001F8
FC000001F8
FC000001F8
FC000001F8
FC000001F8
FBFFFFFEF8
F7FFFFFF78
6FFFFFFFB0
1FFFFFFFC0
1FFFFFFFC0
0FFFFFFF80
ENDCHAR
STARTCHAR K
ENCODING 75
SWIDTH 816 0
DWIDTH 49 0
BBX 37 57 6 3
BITMAP
0FFFFFFF80
1FFFFFFFC0
1FFFFFFFC0
6FFFFFFF80
F7FFFFFF00
FBFFFFFE00
FC00000000
FC00000000
FC00000000
FC00000000
FC00000000
FC00000000
FC00000000
FC00000000
FC00000000
FC00000000
FC00000000
FC00000000
FC00000000
FC00000000
FC00000000
FC00000000
FC00000000
FC00000000
FC00000000
F800000000
F000000000
E7FFFFFF00
CFFFFFFF80
1FFFFFFFC0
1FFFFFFFC0
CFFFFFFFB8
E7FFFFFF78
F0000000F8
F8000001F8
FC000001F8
FC000001F8
FC000001F8
FC000001F8
FC000001F8
FC000001F8
FC000001F8
FC000001F8
FC000001F8
FC000001F8
FC000001F8
FC000001F8
FC000001F8
FC000001F8
FC000001F8
FC000001F8
FC000001F8
FC000001F8
FC000001F8
F8000000F8
F000000078
6000000030
ENDCHAR
STARTCHAR L
ENCODING 76
SWIDTH 816 0
DWIDTH 49 0
BBX 34 57 6 0
BITMAP
6000000000
F000000000
F800000000
FC00000000
FC00000000
FC00000000
FC00000000
FC00000000
FC00000000
FC00000000
FC00000000
FC00000000
FC00000000
FC00000000
FC00000000
FC00000000
FC00000000
FC00000000
FC00000000
FC00000000
FC00000000
FC00000000
F800000000
F000000000
E000000000
C000000000
0000000000
0000000000
C000000000
E000000000
F000000000
F800000000
FC00000000
FC00000000
FC00000000
FC00000000
FC00000000
FC00000000
FC00000000
FC00000000
FC00000000
FC00000000
FC00000000
FC00000000
FC00000000
FC00000000
FC00000000
FC00000000
FC00000000
FC00000000
FC00000000
FBFFFFFE00
F7FFFFFF00
6FFFFFFF80
1FFFFFFFC0
1FFFFFFFC0
0FFFFFFF80
ENDCHAR
STARTCHAR M
ENCODING 77
SWIDTH 816 0
DWIDTH 49 0
BBX 37 57 6 3
BITMAP
0FFFFFFF80
1FFFFFFFC0
1FFFFFFFC0
6FFFFFFFB0
F7FFFFFF78
FBFFFFFEF8
FC000001F8
FC000001F8
FC000001F8
FC000001F8
FC000001F8
FC000001F8
FC000001F8
FC000001F8
FC000001F8
FC000001F8
FC000001F8
FC000001F8
FC000001F8
FC000001F8
FC000001F8
FC000001F8
FC000001F8
FC000001F8
FC000001F8
F8000001F8
F0000000F8
E000000078
C000000038
0000000000
0000000000
C000000038
E000000078
F0000000F8
F8000001F8
FC000001F8
FC000001F8
FC000001F8
FC000001F8
FC000001F8
FC000001F8
FC000001F8
FC000001F8
FC000001F8
FC000001F8
FC000001F8
FC000001F8
FC000001F8
FC000001F8
FC000001F8
FC000001F8
FC000001F8
FC000001F8
FC000001F8
F8000000F8
F000000078
6000000030
ENDCHAR
STARTCHAR N
ENCODING 78
SWIDTH 816 0
DWIDTH 49 0
BBX 37 30 6 3
BITMAP
07FFFFFF00
0FFFFFFF80
1FFFFFFFC0
1FFFFFFFC0
CFFFFFFFB8
E7FFFFFF78
F0000000F8
F8000001F8
FC000001F8
FC000001F8
FC000001F8
FC000001F8
FC000001F8
FC000001F8
FC000001F8
FC000001F8
FC000001F8
FC000001F8
FC000001F8
FC000001F8
FC000001F8
FC000001F8
FC000001F8
FC000001F8
FC000001F8
FC000001F8
FC000001F8
F8000000F8
F000000078
6000000030
ENDCHAR
STARTCHAR O
ENCODING 79
SWIDTH 816 0
DWIDTH 49 0
BBX 37 33 6 0
BITMAP
07FFFFFF00
0FFFFFFF80
1FFFFFFFC0
1FFFFFFFC0
CFFFFFFFB8
E7FFFFFF78
F0000000F8
F8000001F8
FC000001F8
FC000001F8
FC000001F8
FC000001F8
FC000001F8
FC000001F8
FC000001F8
FC000001F8
FC000001F8
FC000001F8
FC000001F8
FC000001F8
FC000001F8
FC000001F8
FC000001F8
FC000001F8
FC000001F8
FC000001F8
FC000001F8
FBFFFFFEF8
F7FFFFFF78
6FFFFFFFB0
1FFFFFFFC0
1FFFFFFFC0
0FFFFFFF80
ENDCHAR
STARTCHAR P
ENCODING 80
SWIDTH 816 0
DWIDTH 49 0
BBX 37 57 6 3
BITMAP
0FFFFFFF80
1FFFFFFFC0
1FFFFFFFC0
6FFFFFFFB0
F7FFFFFF78
FBFFFFFEF8
FC000001F8
FC000001F8
FC000001F8
FC000001F8
FC000001F8
FC000001F8
FC000001F8
FC000001F8
FC000001F8
FC000001F8
FC000001F8
FC000001F8
FC000001F8
FC000001F8
FC000001F8
FC000001F8
FC000001F8
FC000001F8
FC000001F8
F8000001F8
F0000000F8
E7FFFFFF78
CFFFFFFFB8
1FFFFFFFC0
1FFFFFFFC0
CFFFFFFF80
E7FFFFFF00
F000000000
F800000000
FC00000000
FC00000000
FC00000000
FC00000000
FC00000000
FC00000000
FC00000000
FC00000000
FC00000000
FC00000000
FC00000000
FC00000000
FC00000000
FC00000000
FC00000000
FC00000000
FC00000000
FC00000000
FC00000000
F800000000
F000000000
6000000000
ENDCHAR
STARTCHAR Q
ENCODING 81
SWIDTH 816 0
DWIDTH 49 0
BBX 37 57 6 3
BITMAP
0FFFFFFF80
1FFFFFFFC0
1FFFFFFFC0
6FFFFFFFB0
F7FFFFFF78
FBFFFFFEF8
FC000001F8
FC000001F8
FC000001F8
FC000001F8
FC000001F8
FC000001F8
FC000001F8
FC000001F8
FC000001F8
FC000001F8
FC000001F8
FC000001F8
FC000001F8
FC000001F8
FC000001F8
FC000001F8
FC000001F8
FC000001F8
FC000001F8
F8000001F8
F0000000F8
E7FFFFFF78
CFFFFFFFB8
1FFFFFFFC0
1FFFFFFFC0
0FFFFFFFB8
07FFFFFF78
00000000F8
00000001F8
00000001F8
00000001F8
00000001F8
00000001F8
00000001F8
00000001F8
00000001F8
00000001F8
00000001F8
00000001F8
00000001F8
00000001F8
00000001F8
00000001F8
00000001F8
00000001F8
00000001F8
00000001F8
00000001F8
00000000F8
0000000078
0000000030
ENDCHAR
STARTCHAR R
ENCODING 82
SWIDTH 816 0
DWIDTH 49 0
BBX 34 30 6 3
BITMAP
07FFFFFF00
0FFFFFFF80
1FFFFFFFC0
1FFFFFFFC0
CFFFFFFF80
E7FFFFFF00
F000000000
F800000000
FC00000000
FC00000000
FC00000000
FC00000000
FC00000000
FC00000000
FC00000000
FC00000000
FC00000000
FC00000000
FC00000000
FC00000000
FC00000000
FC00000000
FC00000000
FC00000000
FC00000000
FC00000000
FC00000000
F800000000
F000000000
6000000000
ENDCHAR
STARTCHAR S
ENCODING 83
SWIDTH 816 0
DWIDTH 49 0
BBX 37 57 6 0
BITMAP
6000000000
F000000000
F800000000
FC00000000
FC00000000
FC00000000
FC00000000
FC00000000
FC00000000
FC00000000
FC00000000
FC00000000
FC00000000
FC00000000
FC00000000
FC00000000
FC00000000
FC00000000
FC00000000
FC00000000
FC00000000
FC00000000
F800000000
F000000000
E7FFFFFF00
CFFFFFFF80
1FFFFFFFC0
1FFFFFFFC0
0FFFFFFFB8
07FFFFFF78
00000000F8
00000001F8
00000001F8
00000001F8
00000001F8
00000001F8
00000001F8
00000001F8
00000001F8
00000001F8
00000001F8
00000001F8
00000001F8
00000001F8
00000001F8
00000001F8
00000001F8
00000001F8
00000001F8
00000001F8
00000001F8
03FFFFFEF8
07FFFFFF78
0FFFFFFFB0
1FFFFFFFC0
1FFFFFFFC0
0FFFFFFF80
ENDCHAR
STARTCHAR T
ENCODING 84
SWIDTH 816 0
DWIDTH 49 0
BBX 34 57 6 0
BITMAP
6000000000
F000000000
F800000000
FC00000000
FC00000000
FC00000000
FC00000000
FC00000000
FC00000000
FC00000000
FC00000000
FC00000000
FC00000000
FC00000000
FC00000000
FC00000000
FC00000000
FC00000000
FC00000000
FC00000000
FC00000000
FC00000000
F800000000
F000000000
E7FFFFFF00
CFFFFFFF80
1FFFFFFFC0
1FFFFFFFC0
CFFFFFFF80
E7FFFFFF00
F000000000
F800000000
FC00000000
FC00000000
FC00000000
FC00000000
FC00000000
FC00000000
FC00000000
FC00000000
FC00000000
FC00000000
FC00000000
FC00000000
FC00000000
FC00000000
FC00000000
FC00000000
FC00000000
FC00000000
FC00000000
FBFFFFFE00
F7FFFFFF00
6FFFFFFF80
1FFFFFFFC0
1FFFFFFFC0
0FFFFFFF80
ENDCHAR
STARTCHAR U
ENCODING 85
SWIDTH 816 0
DWIDTH 49 0
BBX 37 29 6 0
BITMAP
C000000038
E000000078
F0000000F8
F8000001F8
FC000001F8
FC000001F8
FC000001F8
FC000001F8
FC000001F8
FC000001F8
FC000001F8
FC000001F8
FC000001F8
FC000001F8
FC000001F8
FC000001F8
FC000001F8
FC000001F8
FC000001F8
FC000001F8
FC000001F8
FC000001F8
FC000001F8
FBFFFFFEF8
F7FFFFFF78
6FFFFFFFB0
1FFFFFFFC0
1FFFFFFFC0
0FFFFFFF80
ENDCHAR
STARTCHAR V
ENCODING 86
SWIDTH 816 0
DWIDTH 49 0
BBX 37 57 6 0
BITMAP
6000000030
F000000078
F8000000F8
FC000001F8
FC000001F8
FC000001F8
FC000001F8
FC000001F8
FC000001F8
FC000001F8
FC000001F8
FC000001F8
FC000001F8
FC000001F8
FC000001F8
FC000001F8
FC000001F8
FC000001F8
FC000001F8
FC000001F8
FC000001F8
FC000001F8
F8000001F8
F0000000F8
E000000078
C000000038
0000000000
0000000000
C000000038
E000000078
F0000000F8
F8000001F8
FC000001F8
FC000001F8
FC000001F8
FC000001F8
FC000001F8
FC000001F8
FC000001F8
FC000001F8
FC000001F8
FC000001F8
FC000001F8
FC000001F8
FC000001F8
FC000001F8
FC000001F8
FC000001F8
FC000001F8
FC000001F8
FC000001F8
FBFFFFFEF8
F7FFFFFF78
6FFFFFFFB0
1FFFFFFFC0
1FFFFFFFC0
0FFFFFFF80
ENDCHAR
STARTCHAR W
ENCODING 87
SWIDTH 816 0
DWIDTH 49 0
BBX 37 57 6 0
BITMAP
6000000030
F000000078
F8000000F8
FC000001F8
FC000001F8
FC000001F8
FC000001F8
FC000001F8
FC000001F8
FC000001F8
FC000001F8
FC000001F8
FC000001F8
FC000001F8
FC000001F8
FC000001F8
FC000001F8
FC000001F8
FC000001F8
FC000001F8
FC000001F8
FC000001F8
F8000001F8
F0000000F8
E7FFFFFF78
CFFFFFFFB8
1FFFFFFFC0
1FFFFFFFC0
CFFFFFFFB8
E7FFFFFF78
F0000000F8
F8000001F8
FC000001F8
FC000001F8
FC000001F8
FC000001F8
FC000001F8
FC000001F8
FC000001F8
FC000001F8
FC000001F8
FC000001F8
FC000001F8
FC000001F8
FC000001F8
FC000001F8
FC000001F8
FC000001F8
FC000001F8
FC000001F8
FC000001F8
FBFFFFFEF8
F7FFFFFF78
6FFFFFFFB0
1FFFFFFFC0
1FFFFFFFC0
0FFFFFFF80
ENDCHAR
STARTCHAR X
ENCODING 88
SWIDTH 816 0
DWIDTH 49 0
BBX 37 54 6 3
BITMAP
6000000030
F000000078
F8000000F8
FC000001F8
FC000001F8
FC000001F8
FC000001F8
FC000001F8
FC000001F8
FC000001F8
FC000001F8
FC000001F8
FC000001F8
FC000001F8
FC000001F8
FC000001F8
FC000001F8
FC000001F8
FC000001F8
FC000001F8
FC000001F8
FC000001F8
F8000001F8
F0000000F8
E7FFFFFF78
CFFFFFFFB8
1FFFFFFFC0
1FFFFFFFC0
CFFFFFFFB8
E7FFFFFF78
F0000000F8
F8000001F8
FC000001F8
FC000001F8
FC000001F8
FC000001F8
FC000001F8
FC000001F8
FC000001F8
FC000001F8
FC000001F8
FC000001F8
FC000001F8
FC000001F8
FC000001F8
FC000001F8
FC000001F8
FC000001F8
FC000001F8
FC000001F8
FC000001F8
F8000000F8
F000000078
6000000030
ENDCHAR
STARTCHAR Y
ENCODING 89
SWIDTH 816 0
DWIDTH 49 0
BBX 37 57 6 0
BITMAP
6000000030
F000000078
F8000000F8
FC000001F8
FC000001F8
FC000001F8
FC000001F8
FC000001F8
FC000001F8
FC000001F8
FC000001F8
FC000001F8
FC000001F8
FC000001F8
FC000001F8
FC000001F8
FC000001F8
FC000001F8
FC000001F8
FC000001F8
FC000001F8
FC000001F8
F8000001F8
F0000000F8
E7FFFFFF78
CFFFFFFFB8
1FFFFFFFC0
1FFFFFFFC0
0FFFFFFFB8
07FFFFFF78
00000000F8
00000001F8
00000001F8
00000001F8
00000001F8
00000001F8
00000001F8
00000001F8
00000001F8
00000001F8
00000001F8
00000001F8
00000001F8
00000001F8
00000001F8
00000001F8
00000001F8
00000001F8
00000001F8
00000001F8
00000001F8
03FFFFFEF8
07FFFFFF78
0FFFFFFFB0
1FFFFFFFC0
1FFFFFFFC0
0FFFFFFF80
ENDCHAR
STARTCHAR Z
ENCODING 90
SWIDTH 816 0
DWIDTH 49 0
BBX 37 60 6 0
BITMAP
0FFFFFFF80
1FFFFFFFC0
1FFFFFFFC0
0FFFFFFFB0
07FFFFFF78
03FFFFFEF8
00000001F8
00000001F8
00000001F8
00000001F8
00000001F8
00000001F8
00000001F8
00000001F8
00000001F8
00000001F8
00000001F8
00000001F8
00000001F8
00000001F8
00000001F8
00000001F8
00000001F8
00000001F8
00000001F8
00000001F8
00000000F8
0000000078
0000000038
0000000000
0000000000
C000000000
E000000000
F000000000
F800000000
FC00000000
FC00000000
FC00000000
FC00000000
FC00000000
FC00000000
FC00000000
FC00000000
FC00000000
FC00000000
FC00000000
FC00000000
FC00000000
FC00000000
FC00000000
FC00000000
FC00000000
FC00000000
FC00000000
FBFFFFFE00
F7FFFFFF00
6FFFFFFF80
1FFFFFFFC0
1FFFFFFFC0
0FFFFFFF80
ENDCHAR
STARTCHAR underscore
ENCODING 95
SWIDTH 816 0
DWIDTH 49 0
BBX 31 6 9 0
BITMAP
1FFFFFF0
3FFFFFF8
7FFFFFFC
FFFFFFFE
FFFFFFFE
7FFFFFFC
ENDCHAR
STARTCHAR a
ENCODING 97
SWIDTH 816 0
DWIDTH 49 0
BBX 37 57 6 3
BITMAP
0FFFFFFF80
1FFFFFFFC0
1FFFFFFFC0
6FFFFFFFB0
F7FFFFFF78
FBFFFFFEF8
FC000001F8
FC000001F8
FC000001F8
FC000001F8
FC000001F8
FC000001F8
FC000001F8
FC000001F8
FC000001F8
FC000001F8
FC000001F8
FC000001F8
FC000001F8
FC000001F8
FC000001F8
FC000001F8
FC000001F8
FC000001F8
FC000001F8
F8000001F8
F0000000F8
E7FFFFFF78
CFFFFFFFB8
1FFFFFFFC0
1FFFFFFFC0
CFFFFFFFB8
E7FFFFFF78
F0000000F8
F8000001F8
FC000001F8
FC000001F8
FC000001F8
FC000001F8
FC000001F8
FC000001F8
FC000001F8
FC000001F8
FC000001F8
FC000001F8
FC000001F8
FC000001F8
FC000001F8
FC000001F8
FC000001F8
FC000001F8
FC000001F8
FC000001F8
FC000001F8
F8000000F8
F000000078
6000000030
ENDCHAR
STARTCHAR b
ENCODING 98
SWIDTH 816 0
DWIDTH 49 0
BBX 37 57 6 0
BITMAP
6000000000
F000000000
F800000000
FC00000000
FC00000000
FC00000000
FC00000000
FC00000000
FC00000000
FC00000000
FC00000000
FC00000000
FC00000000
FC00000000
FC00000000
FC00000000
FC00000000
FC00000000
FC00000000
FC00000000
FC00000000
FC00000000
F800000000
F000000000
E7FFFFFF00
CFFFFFFF80
1FFFFFFFC0
1FFFFFFFC0
CFFFFFFFB8
E7FFFFFF78
F0000000F8
F8000001F8
FC000001F8
FC000001F8
FC000001F8
FC000001F8
FC000001F8
FC000001F8
FC000001F8
FC000001F8
FC000001F8
FC000001F8
FC000001F8
FC000001F8
FC000001F8
FC000001F8
FC000001F8
FC000001F8
FC000001F8
FC000001F8
FC000001F8
FBFFFFFEF8
F7FFFFFF78
6FFFFFFFB0
1FFFFFFFC0
1FFFFFFFC0
0FFFFFFF80
ENDCHAR
STARTCHAR c
ENCODING 99
SWIDTH 816 0
DWIDTH 49 0
BBX 34 33 6 0
BITMAP
07FFFFFF00
0FFFFFFF80
1FFFFFFFC0
1FFFFFFFC0
CFFFFFFF80
E7FFFFFF00
F000000000
F800000000
FC00000000
FC00000000
FC00000000
FC00000000
FC00000000
FC00000000
FC00000000
FC00000000
FC00000000
FC00000000
FC00000000
FC00000000
FC00000000
FC00000000
FC00000000
FC00000000
FC00000000
FC00000000
FC00000000
FBFFFFFE00
F7FFFFFF00
6FFFFFFF80
1FFFFFFFC0
1FFFFFFFC0
0FFFFFFF80
ENDCHAR
STARTCHAR d
ENCODING 100
SWIDTH 816 0
DWIDTH 49 0
BBX 37 57 6 0
BITMAP
0000000030
0000000078
00000000F8
00000001F8
00000001F8
00000001F8
00000001F8
00000001F8
00000001F8
00000001F8
00000001F8
00000001F8
00000001F8
00000001F8
00000001F8
00000001F8
00000001F8
00000001F8
00000001F8
00000001F8
00000001F8
00000001F8
00000001F8
00000000F8
07FFFFFF78
0FFFFFFFB8
1FFFFFFFC0
1FFFFFFFC0
CFFFFFFFB8
E7FFFFFF78
F0000000F8
F8000001F8
FC000001F8
FC000001F8
FC000001F8
FC000001F8
FC000001F8
FC000001F8
FC000001F8
FC000001F8
FC000001F8
FC000001F8
FC000001F8
FC000001F8
FC000001F8
FC000001F8
FC000001F8
FC000001F8
FC000001F8
FC000001F8
FC000001F8
FBFFFFFEF8
F7FFFFFF78
6FFFFFFFB0
1FFFFFFFC0
1FFFFFFFC0
0FFFFFFF80
ENDCHAR
STARTCHAR e
ENCODING 101
SWIDTH 816 0
DWIDTH 49 0
BBX 34 60 6 0
BITMAP
0FFFFFFF80
1FFFFFFFC0
1FFFFFFFC0
6FFFFFFF80
F7FFFFFF00
FBFFFFFE00
FC00000000
FC00000000
FC00000000
FC00000000
FC00000000
FC00000000
FC00000000
FC00000000
FC00000000
FC00000000
FC00000000
FC00000000
FC00000000
FC00000000
FC00000000
FC00000000
FC00000000
FC00000000
FC00000000
F800000000
F000000000
E7FFFFFF00
CFFFFFFF80
1FFFFFFFC0
1FFFFFFFC0
CFFFFFFF80
E7FFFFFF00
F000000000
F800000000
FC00000000
FC00000000
FC00000000
FC00000000
FC00000000
FC00000000
FC00000000
FC00000000
FC00000000
FC00000000
FC00000000
FC00000000
FC00000000
FC00000000
FC00000000
FC00000000
FC00000000
FC00000000
FC00000000
FBFFFFFE00
F7FFFFFF00
6FFFFFFF80
1FFFFFFFC0
1FFFFFFFC0
0FFFFFFF80
ENDCHAR
STARTCHAR f
ENCODING 102
SWIDTH 816 0
DWIDTH 49 0
BBX 34 57 6 3
BITMAP
0FFFFFFF80
1FFFFFFFC0
1FFFFFFFC0
6FFFFFFF80
F7FFFFFF00
FBFFFFFE00
FC00000000
FC00000000
FC00000000
FC00000000
FC00000000
FC00000000
FC00000000
FC00000000
FC00000000
FC00000000
FC00000000
FC00000000
FC00000000
FC00000000
FC00000000
FC00000000
FC00000000
FC00000000
FC00000000
F800000000
F000000000
E7FFFFFF00
CFFFFFFF80
1FFFFFFFC0
1FFFFFFFC0
CFFFFFFF80
E7FFFFFF00
F000000000
F800000000
FC00000000
FC00000000
FC00000000
FC00000000
FC00000000
FC00000000
FC00000000
FC00000000
FC00000000
FC00000000
FC00000000
FC00000000
FC00000000
FC00000000
FC00000000
FC00000000
FC00000000
FC00000000
FC00000000
F800000000
F000000000
6000000000
ENDCHAR
STARTCHAR g
ENCODING 103
SWIDTH 816 0
DWIDTH 49 0
BBX 37 60 6 0
BITMAP
0FFFFFFF80
1FFFFFFFC0
1FFFFFFFC0
6FFFFFFF80
F7FFFFFF00
FBFFFFFE00
FC00000000
FC00000000
FC00000000
FC00000000
FC00000000
FC00000000
FC00000000
FC00000000
FC00000000
FC00000000
FC00000000
FC00000000
FC00000000
FC00000000
FC00000000
FC00000000
FC00000000
FC00000000
FC00000000
F800000000
F000000000
E000000000
C000000000
0000000000
0000000000
C000000038
E000000078
F0000000F8
F8000001F8
FC000001F8
FC000001F8
FC000001F8
FC000001F8
FC000001F8
FC000001F8
FC000001F8
FC000001F8
FC000001F8
FC000001F8
FC000001F8
FC000001F8
FC000001F8
FC000001F8
FC000001F8
FC000001F8
FC000001F8
FC000001F8
FC000001F8
FBFFFFFEF8
F7FFFFFF78
6FFFFFFFB0
1FFFFFFFC0
1FFFFFFFC0
0FFFFFFF80
ENDCHAR
STARTCHAR h
ENCODING 104
SWIDTH 816 0
DWIDTH 49 0
BBX 37 54 6 3
BITMAP
6000000000
F000000000
F800000000
FC00000000
FC00000000
FC00000000
FC00000000
FC00000000
FC00000000
FC00000000
FC00000000
FC00000000
FC00000000
FC00000000
FC00000000
FC00000000
FC00000000
FC00000000
FC00000000
FC00000000
FC00000000
FC00000000
F800000000
F000000000
E7FFFFFF00
CFFFFFFF80
1FFFFFFFC0
1FFFFFFFC0
CFFFFFFFB8
E7FFFFFF78
F0000000F8
F8000001F8
FC000001F8
FC000001F8
FC000001F8
FC000001F8
FC000001F8
FC000001F8
FC000001F8
FC000001F8
FC000001F8
FC000001F8
FC000001F8
FC000001F8
FC000001F8
FC000001F8
FC000001F8
FC000001F8
FC000001F8
FC000001F8
FC000001F8
F8000000F8
F000000078
6000000030
ENDCHAR
STARTCHAR i
ENCODING 105
SWIDTH 816 0
DWIDTH 49 0
BBX 6 26 37 3
BITMAP
1C
3C
7C
FC
FC
FC
FC
FC
FC
FC
FC
FC
FC
FC
FC
FC
FC
FC
FC
FC
FC
FC
FC
7C
3C
18
ENDCHAR
STARTCHAR j
ENCODING 106
SWIDTH 816 0
DWIDTH 49 0
BBX 37 57 6 0
BITMAP
0000000030
0000000078
00000000F8
00000001F8
00000001F8
00000001F8
00000001F8
00000001F8
00000001F8
00000001F8
00000001F8
00000001F8
00000001F8
00000001F8
00000001F8
00000001F8
00000001F8
00000001F8
00000001F8
00000001F8
00000001F8
00000001F8
00000001F8
00000000F8
0000000078
0000000038
0000000000
0000000000
C000000038
E000000078
F0000000F8
F8000001F8
FC000001F8
FC000001F8
FC000001F8
FC000001F8
FC000001F8
FC000001F8
FC000001F8
FC000001F8
FC000001F8
FC000001F8
FC000001F8
FC000001F8
FC000001F8
FC000001F8
FC000001F8
FC000001F8
FC000001F8
FC000001F8
FC000001F8
FBFFFFFEF8
F7FFFFFF78
6FFFFFFFB0
1FFFFFFFC0
1FFFFFFFC0
0FFFFFFF80
ENDCHAR
STARTCHAR k
ENCODING 107
SWIDTH 816 0
DWIDTH 49 0
BBX 37 57 6 3
BITMAP
0FFFFFFF80
1FFFFFFFC0
1FFFFFFFC0
6FFFFFFF80
F7FFFFFF00
FBFFFFFE00
FC00000000
FC00000000
FC00000000
FC00000000
FC00000000
FC00000000
FC00000000
FC00000000
FC00000000
FC00000000
FC00000000
FC00000000
FC00000000
FC00000000
FC00000000
FC00000000
FC00000000
FC00000000
FC00000000
F800000000
F000000000
E7FFFFFF00
CFFFFFFF80
1FFFFFFFC0
1FFFFFFFC0
CFFFFFFFB8
E7FFFFFF78
F0000000F8
F8000001F8
FC000001F8
FC000001F8
FC000001F8
FC000001F8
FC000001F8
FC000001F8
FC000001F8
FC000001F8
FC000001F8
FC000001F8
FC000001F8
FC000001F8
FC000001F8
FC000001F8
FC000001F8
FC000001F8
FC000001F8
FC000001F8
FC000001F8
F8000000F8
F000000078
6000000030
ENDCHAR
STARTCHAR l
ENCODING 108
SWIDTH 816 0
DWIDTH 49 0
BBX 34 57 6 0
BITMAP
6000000000
F000000000
F800000000
FC00000000
FC00000000
FC00000000
FC00000000
FC00000000
FC00000000
FC00000000
FC00000000
FC00000000
FC00000000
FC00000000
FC00000000
FC00000000
FC00000000
FC00000000
FC00000000
FC00000000
FC00000000
FC00000000
F800000000
F000000000
E000000000
C000000000
0000000000
0000000000
C000000000
E000000000
F000000000
F800000000
FC00000000
FC00000000
FC00000000
FC00000000
FC00000000
FC00000000
FC00000000
FC00000000
FC00000000
FC00000000
FC00000000
FC00000000
FC00000000
FC00000000
FC00000000
FC00000000
FC00000000
FC00000000
FC00000000
FBFFFFFE00
F7FFFFFF00
6FFFFFFF80
1FFFFFFFC0
1FFFFFFFC0
0FFFFFFF80
ENDCHAR
STARTCHAR m
ENCODING 109
SWIDTH 816 0
DWIDTH 49 0
BBX 37 57 6 3
BITMAP
0FFFFFFF80
1FFFFFFFC0
1FFFFFFFC0
6FFFFFFFB0
F7FFFFFF78
FBFFFFFEF8
FC000001F8
FC000001F8
FC000001F8
FC000001F8
FC000001F8
FC000001F8
FC000001F8
FC000001F8
FC000001F8
FC000001F8
FC000001F8
FC000001F8
FC000001F8
FC000001F8
FC000001F8
FC000001F8
FC000001F8
FC000001F8
FC000001F8
F8000001F8
F0000000F8
E000000078
C000000038
0000000000
0000000000
C000000038
E000000078
F0000000F8
F8000001F8
FC000001F8
FC000001F8
FC000001F8
FC000001F8
FC000001F8
FC000001F8
FC000001F8
FC000001F8
FC000001F8
FC000001F8
FC000001F8
FC000001F8
FC000001F8
FC000001F8
FC000001F8
FC000001F8
FC000001F8
FC000001F8
FC000001F8
F8000000F8
F000000078
6000000030
ENDCHAR
STARTCHAR n
ENCODING 110
SWIDTH 816 0
DWIDTH 49 0
BBX 37 30 6 3
BITMAP
07FFFFFF00
0FFFFFFF80
1FFFFFFFC0
1FFFFFFFC0
CFFFFFFFB8
E7FFFFFF78
F0000000F8
F8000001F8
FC000001F8
FC000001F8
FC000001F8
FC000001F8
FC000001F8
FC000001F8
FC000001F8
FC000001F8
FC000001F8
FC000001F8
FC000001F8
FC000001F8
FC000001F8
FC000001F8
FC000001F8
FC000001F8
FC000001F8
FC000001F8
FC000001F8
F8000000F8
F000000078
6000000030
ENDCHAR
STARTCHAR o
ENCODING 111
SWIDTH 816 0
DWIDTH 49 0
BBX 37 33 6 0
BITMAP
07FFFFFF00
0FFFFFFF80
1FFFFFFFC0
1FFFFFFFC0
CFFFFFFFB8
E7FFFFFF78
F0000000F8
F8000001F8
FC000001F8
FC000001F8
FC000001F8
FC000001F8
FC000001F8
FC000001F8
FC000001F8
FC000001F8
FC000001F8
FC000001F8
FC000001F8
FC000001F8
FC000001F8
FC000001F8
FC000001F8
FC000001F8
FC000001F8
FC000001F8
FC000001F8
FBFFFFFEF8
F7FFFFFF78
6FFFFFFFB0
1FFFFFFFC0
1FFFFFFFC0
0FFFFFFF80
ENDCHAR
STARTCHAR p
ENCODING 112
SWIDTH 816 0
DWIDTH 49 0
BBX 37 57 6 3
BITMAP
0FFFFFFF80
1FFFFFFFC0
1FFFFFFFC0
6FFFFFFFB0
F7FFFFFF78
FBFFFFFEF8
FC000001F8
FC000001F8
FC000001F8
FC000001F8
FC000001F8
FC000001F8
FC000001F8
FC000001F8
FC000001F8
FC000001F8
FC000001F8
FC000001F8
FC000001F8
FC000001F8
FC000001F8
FC000001F8
FC000001F8
FC000001F8
FC000001F8
F8000001F8
F0000000F8
E7FFFFFF78
CFFFFFFFB8
1FFFFFFFC0
1FFFFFFFC0
CFFFFFFF80
E7FFFFFF00
F000000000
F800000000
FC00000000
FC00000000
FC00000000
FC00000000
FC00000000
FC00000000
FC00000000
FC00000000
FC00000000
FC00000000
FC00000000
FC00000000
FC00000000
FC00000000
FC00000000
FC00000000
FC00000000
FC00000000
FC00000000
F800000000
F000000000
6000000000
ENDCHAR
STARTCHAR q
ENCODING 113
SWIDTH 816 0
DWIDTH 49 0
BBX 37 57 6 3
BITMAP
0FFFFFFF80
1FFFFFFFC0
1FFFFFFFC0
6FFFFFFFB0
F7FFFFFF78
FBFFFFFEF8
FC000001F8
FC000001F8
FC000001F8
FC000001F8
FC000001F8
FC000001F8
FC000001F8
FC000001F8
FC000001F8
FC000001F8
FC000001F8
FC000001F8
FC000001F8
FC000001F8
FC000001F8
FC000001F8
FC000001F8
FC000001F8
FC000001F8
F8000001F8
F0000000F8
E7FFFFFF78
CFFFFFFFB8
1FFFFFFFC0
1FFFFFFFC0
0FFFFFFFB8
07FFFFFF78
00000000F8
00000001F8
00000001F8
00000001F8
00000001F8
00000001F8
00000001F8
00000001F8
00000001F8
00000001F8
00000001F8
00000001F8
00000001F8
00000001F8
00000001F8
00000001F8
00000001F8
00000001F8
00000001F8
00000001F8
00000001F8
00000000F8
0000000078
0000000030
ENDCHAR
STARTCHAR r
ENCODING 114
SWIDTH 816 0
DWIDTH 49 0
BBX 34 30 6 3
BITMAP
07FFFFFF00
0FFFFFFF80
1FFFFFFFC0
1FFFFFFFC0
CFFFFFFF80
E7FFFFFF00
F000000000
F800000000
FC00000000
FC00000000
FC00000000
FC00000000
FC00000000
FC00000000
FC00000000
FC00000000
FC00000000
FC00000000
FC00000000
FC00000000
FC00000000
FC00000000
FC00000000
FC00000000
FC00000000
FC00000000
FC00000000
F800000000
F000000000
6000000000
ENDCHAR
STARTCHAR s
ENCODING 115
SWIDTH 816 0
DWIDTH 49 0
BBX 37 57 6 0
BITMAP
6000000000
F000000000
F800000000
FC00000000
FC00000000
FC00000000
FC00000000
FC00000000
FC00000000
FC00000000
FC00000000
FC00000000
FC00000000
FC00000000
FC00000000
FC00000000
FC00000000
FC00000000
FC00000000
FC00000000
FC00000000
FC00000000
F800000000
F000000000
E7FFFFFF00
CFFFFFFF80
1FFFFFFFC0
1FFFFFFFC0
0FFFFFFFB8
07FFFFFF78
00000000F8
00000001F8
00000001F8
00000001F8
00000001F8
00000001F8
00000001F8
00000001F8
00000001F8
00000001F8
00000001F8
00000001F8
00000001F8
00000001F8
00000001F8
00000001F8
00000001F8
00000001F8
00000001F8
00000001F8
00000001F8
03FFFFFEF8
07FFFFFF78
0FFFFFFFB0
1FFFFFFFC0
1FFFFFFFC0
0FFFFFFF80
ENDCHAR
STARTCHAR t
ENCODING 116
SWIDTH 816 0
DWIDTH 49 0
BBX 34 57 6 0
BITMAP
6000000000
F000000000
F800000000
FC00000000
FC00000000
FC00000000
FC00000000
FC00000000
FC00000000
FC00000000
FC00000000
FC00000000
FC00000000
FC00000000
FC00000000
FC00000000
FC00000000
FC00000000
FC00000000
FC00000000
FC00000000
FC00000000
F800000000
F000000000
E7FFFFFF00
CFFFFFFF80
1FFFFFFFC0
1FFFFFFFC0
CFFFFFFF80
E7FFFFFF00
F000000000
F800000000
FC00000000
FC00000000
FC00000000
FC00000000
FC00000000
FC00000000
FC00000000
FC00000000
FC00000000
FC00000000
FC00000000
FC00000000
FC00000000
FC00000000
FC00000000
FC00000000
FC00000000
FC00000000
FC00000000
FBFFFFFE00
F7FFFFFF00
6FFFFFFF80
1FFFFFFFC0
1FFFFFFFC0
0FFFFFFF80
ENDCHAR
STARTCHAR u
ENCODING 117
SWIDTH 816 0
DWIDTH 49 0
BBX 37 29 6 0
BITMAP
C000000038
E000000078
F0000000F8
F8000001F8
FC000001F8
FC000001F8
FC000001F8
FC000001F8
FC000001F8
FC000001F8
FC000001F8
FC000001F8
FC000001F8
FC000001F8
FC000001F8
FC000001F8
FC000001F8
FC000001F8
FC000001F8
FC000001F8
FC000001F8
FC000001F8
FC000001F8
FBFFFFFEF8
F7FFFFFF78
6FFFFFFFB0
1FFFFFFFC0
1FFFFFFFC0
0FFFFFFF80
ENDCHAR
STARTCHAR v
ENCODING 118
SWIDTH 816 0
DWIDTH 49 0
BBX 37 57 6 0
BITMAP
6000000030
F000000078
F8000000F8
FC000001F8
FC000001F8
FC000001F8
FC000001F8
FC000001F8
FC000001F8
FC000001F8
FC000001F8
FC000001F8
FC000001F8
FC000001F8
FC000001F8
FC000001F8
FC000001F8
FC000001F8
FC000001F8
FC000001F8
FC000001F8
FC000001F8
F8000001F8
F0000000F8
E000000078
C000000038
0000000000
0000000000
C000000038
E000000078
F0000000F8
F8000001F8
FC000001F8
FC000001F8
FC000001F8
FC000001F8
FC000001F8
FC000001F8
FC000001F8
FC000001F8
FC000001F8
FC000001F8
FC000001F8
FC000001F8
FC000001F8
FC000001F8
FC000001F8
FC000001F8
FC000001F8
FC000001F8
FC000001F8
FBFFFFFEF8
F7FFFFFF78
6FFFFFFFB0
1FFFFFFFC0
1FFFFFFFC0
0FFFFFFF80
ENDCHAR
STARTCHAR w
ENCODING 119
SWIDTH 816 0
DWIDTH 49 0
BBX 37 57 6 0
BITMAP
6000000030
F000000078
F8000000F8
FC000001F8
FC000001F8
FC000001F8
FC000001F8
FC000001F8
FC000001F8
FC000001F8
FC000001F8
FC000001F8
FC000001F8
FC000001F8
FC000001F8
FC000001F8
FC000001F8
FC000001F8
FC000001F8
FC000001F8
FC000001F8
FC000001F8
F8000001F8
F0000000F8
E7FFFFFF78
CFFFFFFFB8
1FFFFFFFC0
1FFFFFFFC0
CFFFFFFFB8
E7FFFFFF78
F0000000F8
F8000001F8
FC000001F8
FC000001F8
FC000001F8
FC000001F8
FC000001F8
FC000001F8
FC000001F8
FC000001F8
FC000001F8
FC000001F8
FC000001F8
FC000001F8
FC000001F8
FC000001F8
FC000001F8
FC000001F8
FC000001F8
FC000001F8
FC000001F8
FBFFFFFEF8
F7FFFFFF78
6FFFFFFFB0
1FFFFFFFC0
1FFFFFFFC0
0FFFFFFF80
ENDCHAR
STARTCHAR x
ENCODING 120
SWIDTH 816 0
DWIDTH 49 0
BBX 37 54 6 3
BITMAP
6000000030
F000000078
F8000000F8
FC000001F8
FC000001F8
FC000001F8
FC000001F8
FC000001F8
FC000001F8
FC000001F8
FC000001F8
FC000001F8
FC000001F8
FC000001F8
FC000001F8
FC000001F8
FC000001F8
FC000001F8
FC000001F8
FC000001F8
FC000001F8
FC000001F8
F8000001F8
F0000000F8
E7FFFFFF78
CFFFFFFFB8
1FFFFFFFC0
1FFFFFFFC0
CFFFFFFFB8
E7FFFFFF78
F0000000F8
F8000001F8
FC000001F8
FC000001F8
FC000001F8
FC000001F8
FC000001F8
FC000001F8
FC000001F8
FC000001F8
FC000001F8
FC000001F8
FC000001F8
FC000001F8
FC000001F8
FC000001F8
FC000001F8
FC000001F8
FC000001F8
FC000001F8
FC000001F8
F8000000F8
F000000078
6000000030
ENDCHAR
STARTCHAR y
ENCODING 121
SWIDTH 816 0
DWIDTH 49 0
BBX 37 57 6 0
BITMAP
6000000030
F000000078
F8000000F8
FC000001F8
FC000001F8
FC000001F8
FC000001F8
FC000001F8
FC000001F8
FC000001F8
FC000001F8
FC000001F8
FC000001F8
FC000001F8
FC000001F8
FC000001F8
FC000001F8
FC000001F8
FC000001F8
FC000001F8
FC000001F8
FC000001F8
F8000001F8
F0000000F8
E7FFFFFF78
CFFFFFFFB8
1FFFFFFFC0
1FFFFFFFC0
0FFFFFFFB8
07FFFFFF78
00000000F8
00000001F8
00000001F8
00000001F8
00000001F8
00000001F8
00000001F8
00000001F8
00000001F8
00000001F8
00000001F8
00000001F8
00000001F8
00000001F8
00000001F8
00000001F8
00000001F8
00000001F8
00000001F8
00000001F8
00000001F8
03FFFFFEF8
07FFFFFF78
0FFFFFFFB0
1FFFFFFFC0
1FFFFFFFC0
0FFFFFFF80
ENDCHAR
STARTCHAR z
ENCODING 122
SWIDTH 816 0
DWIDTH 49 0
BBX 37 60 6 0
BITMAP
0FFFFFFF80
1FFFFFFFC0
1FFFFFFFC0
0FFFFFFFB0
07FFFFFF78
03FFFFFEF8
00000001F8
00000001F8
00000001F8
00000001F8
00000001F8
00000001F8
00000001F8
00000001F8
00000001F8
00000001F8
00000001F8
00000001F8
00000001F8
00000001F8
00000001F8
00000001F8
00000001F8
00000001F8
00000001F8
00000001F8
00000000F8
0000000078
0000000038
0000000000
0000000000
C000000000
E000000000
F000000000
F800000000
FC00000000
FC00000000
FC00000000
FC00000000
FC00000000
FC00000000
FC00000000
FC00000000
FC00000000
FC00000000
FC00000000
FC00000000
FC00000000
FC00000000
FC00000000
FC00000000
FC00000000
FC00000000
FC00000000
FBFFFFFE00
F7FFFFFF00
6FFFFFFF80
1FFFFFFFC0
1FFFFFFFC0
0FFFFFFF80
ENDCHAR
STARTCHAR degree
ENCODING 176
SWIDTH 816 0
DWIDTH 49 0
BBX 37 33 6 27
BITMAP
0FFFFFFF80
1FFFFFFFC0
1FFFFFFFC0
6FFFFFFFB0
F7FFFFFF78
FBFFFFFEF8
FC000001F8
FC000001F8
FC000001F8
FC000001F8
FC000001F8
FC000001F8
FC000001F8
FC000001F8
FC000001F8
FC000001F8
FC000001F8
FC000001F8
FC000001F8
FC000001F8
FC000001F8
FC000001F8
FC000001F8
FC000001F8
FC000001F8
F8000001F8
F0000000F8
E7FFFFFF78
CFFFFFFFB8
1FFFFFFFC0
1FFFFFFFC0
0FFFFFFF80
07FFFFFF00
ENDCHAR
STARTCHAR .notdef
ENCODING -1
SWIDTH 364 0
DWIDTH 22 0
BBX 16 40 2 0
BITMAP
FFFF
FFFF
C003
C003
C003
C003
C003
C003
C003
C003
C003
C003
C003
C003
C003
C003
C003
C003
C003
C003
C003
C003
C003
C003
C003
C003
C003
C003
C003
C003
C003
C003
C003
C003
C003
C003
C003
C003
FFFF
FFFF
ENDCHAR
STARTCHAR .null
ENCODING -1
SWIDTH 0 0
DWIDTH 0 0
BBX 1 1 0 0
BITMAP
00
ENDCHAR
STARTCHAR nonmarkingreturn
ENCODING -1
SWIDTH 333 0
DWIDTH 20 0
BBX 1 1 0 0
BITMAP
00
ENDCHAR
ENDFONT
